<mxfile host="app.diagrams.net" modified="2024-06-25T10:37:03.291Z" agent="Mozilla/5.0 (Macintosh; Intel Mac OS X 10_15_7) AppleWebKit/537.36 (KHTML, like Gecko) Chrome/126.0.0.0 Safari/537.36" etag="Zr3-fYP-Im59-sfBOCDn" version="24.6.2" type="github">
  <diagram name="第 1 页" id="emYKHJB1NBSYCXd7v77e">
    <mxGraphModel dx="1242" dy="819" grid="1" gridSize="10" guides="1" tooltips="1" connect="1" arrows="1" fold="1" page="1" pageScale="1" pageWidth="1654" pageHeight="2336" math="0" shadow="0">
      <root>
        <mxCell id="0" />
        <mxCell id="1" parent="0" />
        <mxCell id="0phpjLP4zlJQy8E7lRai-10" style="edgeStyle=orthogonalEdgeStyle;rounded=0;orthogonalLoop=1;jettySize=auto;html=1;entryX=0;entryY=0.5;entryDx=0;entryDy=0;" parent="1" source="0phpjLP4zlJQy8E7lRai-1" target="0phpjLP4zlJQy8E7lRai-7" edge="1">
          <mxGeometry relative="1" as="geometry">
            <Array as="points">
              <mxPoint x="540" y="355" />
            </Array>
          </mxGeometry>
        </mxCell>
        <mxCell id="0phpjLP4zlJQy8E7lRai-1" value="访客表" style="shape=partialRectangle;whiteSpace=wrap;html=1;bottom=1;right=1;left=1;top=0;fillColor=none;routingCenterX=-0.5;direction=south;" parent="1" vertex="1">
          <mxGeometry x="480" y="460" width="130" height="50" as="geometry" />
        </mxCell>
        <mxCell id="0phpjLP4zlJQy8E7lRai-2" value="消息队列" style="rounded=0;whiteSpace=wrap;html=1;" parent="1" vertex="1">
          <mxGeometry x="170" y="80" width="140" height="500" as="geometry" />
        </mxCell>
        <mxCell id="0phpjLP4zlJQy8E7lRai-12" style="edgeStyle=orthogonalEdgeStyle;rounded=0;orthogonalLoop=1;jettySize=auto;html=1;entryX=1;entryY=0.5;entryDx=0;entryDy=0;" parent="1" source="0phpjLP4zlJQy8E7lRai-3" target="0phpjLP4zlJQy8E7lRai-5" edge="1">
          <mxGeometry relative="1" as="geometry">
            <Array as="points">
              <mxPoint x="860" y="265" />
              <mxPoint x="860" y="265" />
            </Array>
          </mxGeometry>
        </mxCell>
        <mxCell id="0phpjLP4zlJQy8E7lRai-13" style="edgeStyle=orthogonalEdgeStyle;rounded=0;orthogonalLoop=1;jettySize=auto;html=1;entryX=1;entryY=0.5;entryDx=0;entryDy=0;" parent="1" source="0phpjLP4zlJQy8E7lRai-3" target="0phpjLP4zlJQy8E7lRai-6" edge="1">
          <mxGeometry relative="1" as="geometry">
            <Array as="points">
              <mxPoint x="850" y="185" />
              <mxPoint x="850" y="185" />
            </Array>
          </mxGeometry>
        </mxCell>
        <mxCell id="0phpjLP4zlJQy8E7lRai-3" value="管理员" style="rounded=0;whiteSpace=wrap;html=1;" parent="1" vertex="1">
          <mxGeometry x="890" y="80" width="140" height="500" as="geometry" />
        </mxCell>
        <mxCell id="0phpjLP4zlJQy8E7lRai-15" style="edgeStyle=orthogonalEdgeStyle;rounded=0;orthogonalLoop=1;jettySize=auto;html=1;entryX=0;entryY=0.75;entryDx=0;entryDy=0;" parent="1" source="0phpjLP4zlJQy8E7lRai-5" target="0phpjLP4zlJQy8E7lRai-1" edge="1">
          <mxGeometry relative="1" as="geometry" />
        </mxCell>
        <mxCell id="0phpjLP4zlJQy8E7lRai-5" value="删除访客信息" style="rounded=1;whiteSpace=wrap;html=1;" parent="1" vertex="1">
          <mxGeometry x="640" y="240" width="110" height="50" as="geometry" />
        </mxCell>
        <mxCell id="0phpjLP4zlJQy8E7lRai-14" style="edgeStyle=orthogonalEdgeStyle;rounded=0;orthogonalLoop=1;jettySize=auto;html=1;" parent="1" source="0phpjLP4zlJQy8E7lRai-6" target="0phpjLP4zlJQy8E7lRai-1" edge="1">
          <mxGeometry relative="1" as="geometry">
            <Array as="points">
              <mxPoint x="570" y="185" />
            </Array>
          </mxGeometry>
        </mxCell>
        <mxCell id="0phpjLP4zlJQy8E7lRai-6" value="新增访客信息" style="rounded=1;whiteSpace=wrap;html=1;" parent="1" vertex="1">
          <mxGeometry x="640" y="160" width="110" height="50" as="geometry" />
        </mxCell>
        <mxCell id="0phpjLP4zlJQy8E7lRai-11" style="edgeStyle=orthogonalEdgeStyle;rounded=0;orthogonalLoop=1;jettySize=auto;html=1;" parent="1" source="0phpjLP4zlJQy8E7lRai-7" target="0phpjLP4zlJQy8E7lRai-3" edge="1">
          <mxGeometry relative="1" as="geometry">
            <Array as="points">
              <mxPoint x="860" y="355" />
              <mxPoint x="860" y="355" />
            </Array>
          </mxGeometry>
        </mxCell>
        <mxCell id="0phpjLP4zlJQy8E7lRai-7" value="查询访客列表" style="rounded=1;whiteSpace=wrap;html=1;" parent="1" vertex="1">
          <mxGeometry x="640" y="330" width="110" height="50" as="geometry" />
        </mxCell>
        <mxCell id="0phpjLP4zlJQy8E7lRai-16" style="edgeStyle=orthogonalEdgeStyle;rounded=0;orthogonalLoop=1;jettySize=auto;html=1;entryX=1.029;entryY=0.094;entryDx=0;entryDy=0;entryPerimeter=0;" parent="1" source="0phpjLP4zlJQy8E7lRai-6" target="0phpjLP4zlJQy8E7lRai-2" edge="1">
          <mxGeometry relative="1" as="geometry">
            <Array as="points">
              <mxPoint x="695" y="127" />
            </Array>
          </mxGeometry>
        </mxCell>
        <mxCell id="0phpjLP4zlJQy8E7lRai-18" value="新增访客信息" style="edgeLabel;html=1;align=center;verticalAlign=middle;resizable=0;points=[];" parent="0phpjLP4zlJQy8E7lRai-16" vertex="1" connectable="0">
          <mxGeometry x="0.3867" y="-3" relative="1" as="geometry">
            <mxPoint x="29" as="offset" />
          </mxGeometry>
        </mxCell>
        <mxCell id="0phpjLP4zlJQy8E7lRai-17" style="edgeStyle=orthogonalEdgeStyle;rounded=0;orthogonalLoop=1;jettySize=auto;html=1;" parent="1" source="0phpjLP4zlJQy8E7lRai-5" edge="1">
          <mxGeometry relative="1" as="geometry">
            <mxPoint x="310" y="220" as="targetPoint" />
            <Array as="points">
              <mxPoint x="695" y="220" />
              <mxPoint x="310" y="220" />
            </Array>
          </mxGeometry>
        </mxCell>
        <mxCell id="0phpjLP4zlJQy8E7lRai-19" value="删除访客信息" style="edgeLabel;html=1;align=center;verticalAlign=middle;resizable=0;points=[];" parent="0phpjLP4zlJQy8E7lRai-17" vertex="1" connectable="0">
          <mxGeometry x="0.5704" y="-3" relative="1" as="geometry">
            <mxPoint x="53" as="offset" />
          </mxGeometry>
        </mxCell>
      </root>
    </mxGraphModel>
  </diagram>
</mxfile>
